<mxfile host="app.diagrams.net" modified="2024-03-15T17:21:23.675Z" agent="Mozilla/5.0 (Windows NT 10.0; Win64; x64; rv:123.0) Gecko/20100101 Firefox/123.0" etag="YgKTyaI3uZI3xf9-c-vX" version="24.0.5" type="github">
  <diagram name="Page-1" id="IAJ_4rvyjz3BvZQZ1O8K">
    <mxGraphModel dx="1434" dy="1961" grid="1" gridSize="10" guides="1" tooltips="1" connect="1" arrows="1" fold="1" page="1" pageScale="1" pageWidth="850" pageHeight="1100" math="0" shadow="0">
      <root>
        <mxCell id="0" />
        <mxCell id="1" parent="0" />
        <mxCell id="W8L4pgAXhne4LoIwznhK-1" value="AWS Cloud" style="sketch=0;outlineConnect=0;gradientColor=none;html=1;whiteSpace=wrap;fontSize=12;fontStyle=0;shape=mxgraph.aws4.group;grIcon=mxgraph.aws4.group_aws_cloud;strokeColor=#AAB7B8;fillColor=none;verticalAlign=top;align=left;spacingLeft=30;fontColor=#AAB7B8;dashed=0;" parent="1" vertex="1">
          <mxGeometry x="20" y="60" width="810" height="620" as="geometry" />
        </mxCell>
        <mxCell id="W8L4pgAXhne4LoIwznhK-20" style="edgeStyle=orthogonalEdgeStyle;rounded=0;orthogonalLoop=1;jettySize=auto;html=1;" parent="1" source="W8L4pgAXhne4LoIwznhK-4" target="W8L4pgAXhne4LoIwznhK-24" edge="1">
          <mxGeometry relative="1" as="geometry" />
        </mxCell>
        <mxCell id="W8L4pgAXhne4LoIwznhK-4" value="" style="sketch=0;outlineConnect=0;fontColor=#232F3E;gradientColor=none;fillColor=#8C4FFF;strokeColor=none;dashed=0;verticalLabelPosition=bottom;verticalAlign=top;align=center;html=1;fontSize=12;fontStyle=0;aspect=fixed;pointerEvents=1;shape=mxgraph.aws4.internet_gateway;" parent="1" vertex="1">
          <mxGeometry x="355" y="60" width="80" height="80" as="geometry" />
        </mxCell>
        <mxCell id="W8L4pgAXhne4LoIwznhK-11" value="Public subnet" style="points=[[0,0],[0.25,0],[0.5,0],[0.75,0],[1,0],[1,0.25],[1,0.5],[1,0.75],[1,1],[0.75,1],[0.5,1],[0.25,1],[0,1],[0,0.75],[0,0.5],[0,0.25]];outlineConnect=0;gradientColor=none;html=1;whiteSpace=wrap;fontSize=12;fontStyle=0;container=1;pointerEvents=0;collapsible=0;recursiveResize=0;shape=mxgraph.aws4.group;grIcon=mxgraph.aws4.group_security_group;grStroke=0;strokeColor=#7AA116;fillColor=#F2F6E8;verticalAlign=top;align=left;spacingLeft=30;fontColor=#248814;dashed=0;" parent="1" vertex="1">
          <mxGeometry x="460" y="270" width="260" height="130" as="geometry" />
        </mxCell>
        <mxCell id="W8L4pgAXhne4LoIwznhK-26" value="" style="outlineConnect=0;dashed=0;verticalLabelPosition=bottom;verticalAlign=top;align=center;html=1;shape=mxgraph.aws3.ec2;fillColor=#F58534;gradientColor=none;" parent="W8L4pgAXhne4LoIwznhK-11" vertex="1">
          <mxGeometry x="215" y="39.25" width="60" height="61.5" as="geometry" />
        </mxCell>
        <mxCell id="W8L4pgAXhne4LoIwznhK-3" value="VPC" style="sketch=0;outlineConnect=0;gradientColor=none;html=1;whiteSpace=wrap;fontSize=12;fontStyle=0;shape=mxgraph.aws4.group;grIcon=mxgraph.aws4.group_vpc;strokeColor=#879196;fillColor=none;verticalAlign=top;align=left;spacingLeft=30;fontColor=#879196;dashed=0;" parent="W8L4pgAXhne4LoIwznhK-11" vertex="1">
          <mxGeometry x="-335" y="-190" width="660" height="520" as="geometry" />
        </mxCell>
        <mxCell id="W8L4pgAXhne4LoIwznhK-6" value="Availability zone" style="sketch=0;outlineConnect=0;gradientColor=none;html=1;whiteSpace=wrap;fontSize=12;fontStyle=0;shape=mxgraph.aws4.group;grIcon=mxgraph.aws4.group_availability_zone;strokeColor=#545B64;fillColor=none;verticalAlign=top;align=left;spacingLeft=30;fontColor=#545B64;dashed=1;" parent="W8L4pgAXhne4LoIwznhK-11" vertex="1">
          <mxGeometry x="-20" y="-130" width="320" height="230" as="geometry" />
        </mxCell>
        <mxCell id="W8L4pgAXhne4LoIwznhK-14" value="Public subnet" style="points=[[0,0],[0.25,0],[0.5,0],[0.75,0],[1,0],[1,0.25],[1,0.5],[1,0.75],[1,1],[0.75,1],[0.5,1],[0.25,1],[0,1],[0,0.75],[0,0.5],[0,0.25]];outlineConnect=0;gradientColor=none;html=1;whiteSpace=wrap;fontSize=12;fontStyle=0;container=1;pointerEvents=0;collapsible=0;recursiveResize=0;shape=mxgraph.aws4.group;grIcon=mxgraph.aws4.group_security_group;grStroke=0;strokeColor=#7AA116;fillColor=#F2F6E8;verticalAlign=top;align=left;spacingLeft=30;fontColor=#248814;dashed=0;" parent="1" vertex="1">
          <mxGeometry x="100" y="270" width="250" height="130" as="geometry" />
        </mxCell>
        <mxCell id="W8L4pgAXhne4LoIwznhK-22" value="" style="sketch=0;outlineConnect=0;fontColor=#232F3E;gradientColor=none;fillColor=#8C4FFF;strokeColor=none;dashed=0;verticalLabelPosition=bottom;verticalAlign=top;align=center;html=1;fontSize=12;fontStyle=0;aspect=fixed;pointerEvents=1;shape=mxgraph.aws4.nat_gateway;" parent="W8L4pgAXhne4LoIwznhK-14" vertex="1">
          <mxGeometry x="210" y="81" width="38" height="38" as="geometry" />
        </mxCell>
        <mxCell id="W8L4pgAXhne4LoIwznhK-23" value="" style="outlineConnect=0;dashed=0;verticalLabelPosition=bottom;verticalAlign=top;align=center;html=1;shape=mxgraph.aws3.ec2;fillColor=#F58534;gradientColor=none;" parent="W8L4pgAXhne4LoIwznhK-14" vertex="1">
          <mxGeometry x="30" y="38.5" width="60" height="61.5" as="geometry" />
        </mxCell>
        <mxCell id="W8L4pgAXhne4LoIwznhK-15" value="Private subnet" style="points=[[0,0],[0.25,0],[0.5,0],[0.75,0],[1,0],[1,0.25],[1,0.5],[1,0.75],[1,1],[0.75,1],[0.5,1],[0.25,1],[0,1],[0,0.75],[0,0.5],[0,0.25]];outlineConnect=0;gradientColor=none;html=1;whiteSpace=wrap;fontSize=12;fontStyle=0;container=1;pointerEvents=0;collapsible=0;recursiveResize=0;shape=mxgraph.aws4.group;grIcon=mxgraph.aws4.group_security_group;grStroke=0;strokeColor=#00A4A6;fillColor=#E6F6F7;verticalAlign=top;align=left;spacingLeft=30;fontColor=#147EBA;dashed=0;" parent="1" vertex="1">
          <mxGeometry x="120" y="430" width="230" height="130" as="geometry" />
        </mxCell>
        <mxCell id="W8L4pgAXhne4LoIwznhK-25" value="" style="outlineConnect=0;dashed=0;verticalLabelPosition=bottom;verticalAlign=top;align=center;html=1;shape=mxgraph.aws3.ec2;fillColor=#F58534;gradientColor=none;" parent="W8L4pgAXhne4LoIwznhK-15" vertex="1">
          <mxGeometry x="10" y="44.25" width="60" height="61.5" as="geometry" />
        </mxCell>
        <mxCell id="W8L4pgAXhne4LoIwznhK-16" value="Private subnet" style="points=[[0,0],[0.25,0],[0.5,0],[0.75,0],[1,0],[1,0.25],[1,0.5],[1,0.75],[1,1],[0.75,1],[0.5,1],[0.25,1],[0,1],[0,0.75],[0,0.5],[0,0.25]];outlineConnect=0;gradientColor=none;html=1;whiteSpace=wrap;fontSize=12;fontStyle=0;container=1;pointerEvents=0;collapsible=0;recursiveResize=0;shape=mxgraph.aws4.group;grIcon=mxgraph.aws4.group_security_group;grStroke=0;strokeColor=#00A4A6;fillColor=#E6F6F7;verticalAlign=top;align=left;spacingLeft=30;fontColor=#147EBA;dashed=0;" parent="1" vertex="1">
          <mxGeometry x="460" y="440" width="250" height="120" as="geometry" />
        </mxCell>
        <mxCell id="W8L4pgAXhne4LoIwznhK-17" value="" style="outlineConnect=0;dashed=0;verticalLabelPosition=bottom;verticalAlign=top;align=center;html=1;shape=mxgraph.aws3.ec2;fillColor=#F58534;gradientColor=none;" parent="W8L4pgAXhne4LoIwznhK-16" vertex="1">
          <mxGeometry x="180" y="60" width="60" height="50.5" as="geometry" />
        </mxCell>
        <mxCell id="W8L4pgAXhne4LoIwznhK-27" value="" style="sketch=0;outlineConnect=0;fontColor=#232F3E;gradientColor=none;fillColor=#8C4FFF;strokeColor=none;dashed=0;verticalLabelPosition=bottom;verticalAlign=top;align=center;html=1;fontSize=12;fontStyle=0;aspect=fixed;pointerEvents=1;shape=mxgraph.aws4.nat_gateway;" parent="W8L4pgAXhne4LoIwznhK-16" vertex="1">
          <mxGeometry x="-10" y="-100" width="40" height="40" as="geometry" />
        </mxCell>
        <mxCell id="W8L4pgAXhne4LoIwznhK-18" value="" style="outlineConnect=0;dashed=0;verticalLabelPosition=bottom;verticalAlign=top;align=center;html=1;shape=mxgraph.aws3.route_table;fillColor=#F58536;gradientColor=none;" parent="1" vertex="1">
          <mxGeometry x="375" y="480" width="50" height="50" as="geometry" />
        </mxCell>
        <mxCell id="W8L4pgAXhne4LoIwznhK-21" value="" style="outlineConnect=0;dashed=0;verticalLabelPosition=bottom;verticalAlign=top;align=center;html=1;shape=mxgraph.aws3.ec2;fillColor=#F58534;gradientColor=none;" parent="1" vertex="1">
          <mxGeometry x="1066" y="880" width="60" height="61.5" as="geometry" />
        </mxCell>
        <mxCell id="W8L4pgAXhne4LoIwznhK-24" value="" style="outlineConnect=0;dashed=0;verticalLabelPosition=bottom;verticalAlign=top;align=center;html=1;shape=mxgraph.aws3.route_table;fillColor=#F58536;gradientColor=none;" parent="1" vertex="1">
          <mxGeometry x="380" y="290" width="50" height="50" as="geometry" />
        </mxCell>
        <mxCell id="W8L4pgAXhne4LoIwznhK-5" value="Availability zone" style="sketch=0;outlineConnect=0;gradientColor=none;html=1;whiteSpace=wrap;fontSize=12;fontStyle=0;shape=mxgraph.aws4.group;grIcon=mxgraph.aws4.group_availability_zone;strokeColor=#545B64;fillColor=none;verticalAlign=top;align=left;spacingLeft=30;fontColor=#545B64;dashed=1;" parent="1" vertex="1">
          <mxGeometry x="122" y="140" width="228" height="450" as="geometry" />
        </mxCell>
        <mxCell id="W8L4pgAXhne4LoIwznhK-28" value="" style="image;aspect=fixed;perimeter=ellipsePerimeter;html=1;align=center;shadow=0;dashed=0;spacingTop=3;image=img/lib/active_directory/laptop_client.svg;" parent="1" vertex="1">
          <mxGeometry x="390" y="-20" width="45" height="50" as="geometry" />
        </mxCell>
        <mxCell id="W8L4pgAXhne4LoIwznhK-29" value="Actor" style="shape=umlActor;verticalLabelPosition=bottom;verticalAlign=top;html=1;outlineConnect=0;" parent="1" vertex="1">
          <mxGeometry x="360" y="-20" width="30" height="60" as="geometry" />
        </mxCell>
        <mxCell id="6oxgPbWQ2aD3RhMP3mct-1" value="" style="ellipse;whiteSpace=wrap;html=1;" vertex="1" parent="1">
          <mxGeometry x="1210" y="610" width="120" height="80" as="geometry" />
        </mxCell>
      </root>
    </mxGraphModel>
  </diagram>
</mxfile>
